<mxfile host="app.diagrams.net" modified="2024-03-28T03:52:15.692Z" agent="Mozilla/5.0 (Windows NT 10.0; Win64; x64) AppleWebKit/537.36 (KHTML, like Gecko) Chrome/122.0.0.0 Safari/537.36 Edg/122.0.0.0" version="24.2.0" etag="h0vI16zCiUJeZiqu8hmi" type="github">
  <diagram name="第 1 页" id="Uutl4ehA6I-lXQk2u0EV">
    <mxGraphModel>
      <root>
        <mxCell id="0" />
        <mxCell id="1" parent="0" />
      </root>
    </mxGraphModel>
  </diagram>
</mxfile>
